<svg xmlns="http://www.w3.org/2000/svg" xmlns:xlink="http://www.w3.org/1999/xlink" version="1.1" width="2530" height="2238" style="width: 2530px; height: 2238px; background: #ffffff" viewBox="0 0 2530 2238"><style id="v-3" type="text/css">        .joint-element .scalable * {            vector-effect: non-scaling-stroke;        }    </style><defs joint-selector="defs"><marker id="v-21252848929" orient="auto" overflow="visible" markerUnits="userSpaceOnUse"><path id="v-97" stroke="#444444" fill="#444444" transform="rotate(180)" d="M 20 -10 0 0 20 10 Z"></path></marker></defs><g joint-selector="layers"  transform="matrix(1,0,0,1,0,0)"><g  style="pointer-events: none;"></g><g ></g><g  style="user-select: none;"><!--z-index:0--><!--z-index:1--><!--z-index:2--><!--z-index:3--><!--z-index:4--><!--z-index:5--><!--z-index:6--><!--z-index:7--><!--z-index:8--><!--z-index:9--><!--z-index:10--><!--z-index:11--><!--z-index:12--><!--z-index:13--><!--z-index:14--><!--z-index:15--><!--z-index:16--><!--z-index:17--><g   id="j_27"  transform="translate(20,2194)"><g id="v-296"><text  id="v-297" font-size="24px" xml:space="preserve" y="0.8em" font-weight="normal" text-anchor="start" fill="#444444" pointer-events="none" display="block" font-family="Tahoma, Verdana, Helvetica, Arial"><tspan dy="0" >Thursday, May 28, 2026 at 6:26 AM Coordinated Universal Time</tspan></text></g></g><!--z-index:18--><g   id="j_26"  transform="translate(20,2160)"><g id="v-294"><text  id="v-295" font-size="24px" xml:space="preserve" y="0.8em" font-weight="normal" text-anchor="start" fill="#444444" pointer-events="none" display="block" font-family="Tahoma, Verdana, Helvetica, Arial"><tspan dy="0" >SYS-01 — Containers (arc42 §5.1).</tspan></text></g></g><!--z-index:19--><g   id="j_25"  transform="translate(20,2114)"><g id="v-292"><text  id="v-293" font-size="36px" xml:space="preserve" y="0.8em" font-weight="normal" text-anchor="start" fill="#444444" pointer-events="none" display="block" font-family="Tahoma, Verdana, Helvetica, Arial"><tspan dy="0" >Container View: SYS-01 — Claims Platform</tspan></text></g></g><!--z-index:20--><g   id="j_29"  transform="translate(200,143)" style="; opacity: 1;"><g id="v-316"><rect  id="v-317" width="2130" height="1053" rx="0" ry="0" stroke-width="2" pointer-events="none" stroke="#0a64a6" fill="#ffffff" opacity="1" stroke-dasharray=""></rect><text  id="v-318" font-size="33.599999999999994px" xml:space="preserve" y="1014" font-weight="bold" text-anchor="start" pointer-events="visible" font-family="Tahoma, Verdana, Helvetica, Arial" fill="#0a64a6" transform="matrix(1,0,0,1,15,0)"><tspan dy="0" >SYS-01 — Claims Platform</tspan></text><text  id="v-319" font-size="16.799999999999997px" xml:space="preserve" y="1038" font-weight="normal" text-anchor="start" pointer-events="visible" font-family="Tahoma, Verdana, Helvetica, Arial" fill="#0a64a6" transform="matrix(1,0,0,1,15,0)"><tspan dy="0" >[Software System]</tspan></text><image  id="v-320" pointer-events="visible"></image></g></g><!--z-index:21--><g   id="j_28"  transform="translate(250,767)" style=""><g  id="v-304" style="opacity: 1;"><rect  id="v-305" rx="10" ry="10" stroke-width="2" pointer-events="visiblePainted" fill="#3c7fc0" stroke="#3c7fc0" stroke-dasharray="" width="450" height="302" style="fill: rgb(60, 127, 192); stroke: rgb(60, 127, 192);"></rect><rect  id="v-306" rx="10" ry="10" stroke-width="0" pointer-events="visiblePainted" fill="#438dd5" stroke="#3c7fc0" width="446" height="260" x="2" y="40" style="fill: rgb(67, 141, 213);"></rect><ellipse  id="v-313" fill="#438dd5" cx="20" cy="20" rx="10" ry="10" style="fill: rgb(67, 141, 213);"></ellipse><ellipse  id="v-314" fill="#438dd5" cx="50" cy="20" rx="10" ry="10" style="fill: rgb(67, 141, 213);"></ellipse><ellipse  id="v-315" fill="#438dd5" cx="80" cy="20" rx="10" ry="10" style="fill: rgb(67, 141, 213);"></ellipse><rect  id="v-307" rx="10" ry="10" stroke-width="0" pointer-events="visiblePainted" fill="#438dd5" width="340" height="20" x="100" y="10" style="fill: rgb(67, 141, 213);"></rect><text  id="v-308" font-size="33.599999999999994px" xml:space="preserve" y="101.14000000000001" font-weight="bold" text-anchor="middle" pointer-events="visible" font-family="Tahoma, Verdana, Helvetica, Arial" fill="#ffffff" dominant-baseline="hanging" transform="matrix(1,0,0,1,225,0)" style="fill: rgb(255, 255, 255);"><tspan dy="0" >CON-01 — Customer</tspan><tspan dy="1.2em" x="0" >Portal</tspan></text><text  id="v-309" font-size="16.799999999999997px" xml:space="preserve" y="183.06" text-anchor="middle" font-family="Tahoma, Verdana, Helvetica, Arial" fill="#ffffff" dominant-baseline="hanging" transform="matrix(1,0,0,1,225,0)" style="display: block; fill: rgb(255, 255, 255);"><tspan dy="0" >[Container: React 18 + Vite]</tspan></text><text  id="v-310" font-size="24px" xml:space="preserve" y="214.86" text-anchor="middle" font-family="Tahoma, Verdana, Helvetica, Arial" fill="#ffffff" dominant-baseline="hanging" transform="matrix(1,0,0,1,225,0)" style="display: block; fill: rgb(255, 255, 255);"><tspan dy="0" >Self-service claim submission UI</tspan></text><g  id="v-311" font-weight="normal" text-anchor="middle" color="#ffffff" transform="matrix(1,0,0,1,222.5,268)" display="none" style="fill: rgb(255, 255, 255);"><g ></g><g ></g><g ></g><g ></g></g><image  id="v-312"></image></g></g><!--z-index:22--><g   id="j_30"  transform="translate(1040,307)" style=""><g  id="v-330" style="opacity: 1;"><rect  id="v-331" rx="1" ry="1" stroke-width="2" pointer-events="visiblePainted" fill="#0b6fb8" stroke="#0a64a6" stroke-dasharray="" width="450" height="300" style="fill: rgb(11, 111, 184); stroke: rgb(10, 100, 166);"></rect><text  id="v-332" font-size="33.599999999999994px" xml:space="preserve" y="101.30000000000001" font-weight="bold" text-anchor="middle" pointer-events="visible" font-family="Tahoma, Verdana, Helvetica, Arial" fill="#ffffff" dominant-baseline="hanging" transform="matrix(1,0,0,1,225,0)" style="fill: rgb(255, 255, 255);"><tspan dy="0" >CON-02 — Claims API</tspan></text><text  id="v-333" font-size="16.799999999999997px" xml:space="preserve" y="142.9" text-anchor="middle" font-family="Tahoma, Verdana, Helvetica, Arial" fill="#ffffff" dominant-baseline="hanging" transform="matrix(1,0,0,1,225,0)" style="display: block; fill: rgb(255, 255, 255);"><tspan dy="0" >[Container: Node.js 20 + Fastify]</tspan></text><text  id="v-334" font-size="24px" xml:space="preserve" y="174.7" text-anchor="middle" font-family="Tahoma, Verdana, Helvetica, Arial" fill="#ffffff" dominant-baseline="hanging" transform="matrix(1,0,0,1,225,0)" style="display: block; fill: rgb(255, 255, 255);"><tspan dy="0" >Domain command + query surface</tspan></text><g  id="v-335" color="#ffffff" transform="matrix(1,0,0,1,210,268)" display="none" style="fill: rgb(255, 255, 255);"><g  transform="translate(5 0)"><svg xmlns="http://www.w3.org/2000/svg" width="20" height="20" fill="currentColor" viewBox="0 0 16 16"><path fill-rule="evenodd" d="M6.5 12a5.5 5.5 0 1 0 0-11 5.5 5.5 0 0 0 0 11zM13 6.5a6.5 6.5 0 1 1-13 0 6.5 6.5 0 0 1 13 0z"></path><path d="M10.344 11.742c.03.04.062.078.098.115l3.85 3.85a1 1 0 0 0 1.415-1.414l-3.85-3.85a1.007 1.007 0 0 0-.115-.1 6.538 6.538 0 0 1-1.398 1.4z"></path><path fill-rule="evenodd" d="M6.5 3a.5.5 0 0 1 .5.5V6h2.5a.5.5 0 0 1 0 1H7v2.5a.5.5 0 0 1-1 0V7H3.5a.5.5 0 0 1 0-1H6V3.5a.5.5 0 0 1 .5-.5z"></path></svg></g><g ></g><g ></g><g ></g></g><image  id="v-336"></image></g></g><!--z-index:23--><g   id="j_31"  transform="translate(1830,193)" style=""><g  id="v-343" style="opacity: 1;"><path  d="M 0,30 a 225,30 0,0,0 450 0 a 225,30 0,0,0 -450 0 l 0,240 a 225,30 0,0,0 450 0 l 0,-240" id="v-344" stroke-width="2" pointer-events="visiblePainted" fill="#438dd5" stroke="#3c7fc0" stroke-dasharray="" style="fill: rgb(67, 141, 213); stroke: rgb(60, 127, 192);"></path><rect  id="v-345" stroke-width="0" pointer-events="visiblePainted" fill="none" stroke="none" width="450" height="270" x="0" y="30"></rect><text  id="v-346" font-size="33.599999999999994px" xml:space="preserve" y="96.14000000000001" font-weight="bold" text-anchor="middle" pointer-events="visible" font-family="Tahoma, Verdana, Helvetica, Arial" fill="#ffffff" dominant-baseline="hanging" transform="matrix(1,0,0,1,225,0)" style="fill: rgb(255, 255, 255);"><tspan dy="0" >CON-03 — Claims</tspan><tspan dy="1.2em" x="0" >Database</tspan></text><text  id="v-347" font-size="16.799999999999997px" xml:space="preserve" y="178.06" text-anchor="middle" font-family="Tahoma, Verdana, Helvetica, Arial" fill="#ffffff" dominant-baseline="hanging" transform="matrix(1,0,0,1,225,0)" style="display: block; fill: rgb(255, 255, 255);"><tspan dy="0" >[Container: PostgreSQL 16]</tspan></text><text  id="v-348" font-size="24px" xml:space="preserve" y="209.86" text-anchor="middle" font-family="Tahoma, Verdana, Helvetica, Arial" fill="#ffffff" dominant-baseline="hanging" transform="matrix(1,0,0,1,225,0)" style="display: block; fill: rgb(255, 255, 255);"><tspan dy="0" >Persistent state for Claim aggregate</tspan></text><g  id="v-349" font-weight="normal" text-anchor="middle" color="#ffffff" transform="matrix(1,0,0,1,222.5,268)" display="none" style="fill: rgb(255, 255, 255);"><g ></g><g ></g><g ></g><g ></g></g><image  id="v-350"></image></g></g><!--z-index:24--><g   id="j_32"  transform="translate(1830,605)" style=""><g  id="v-357" style="opacity: 1;"><path  d="M 30,0 a 30,150 0,0,1 0 300 a 30,150 0,0,1 0 -300 l 390,0 a 30,150 0,0,1 0 300 l -390,0" id="v-358" stroke-width="2" pointer-events="visiblePainted" fill="#438dd5" stroke="#3c7fc0" stroke-dasharray="" style="fill: rgb(67, 141, 213); stroke: rgb(60, 127, 192);"></path><rect  id="v-359" stroke-width="0" pointer-events="visiblePainted" fill="none" stroke="none" width="420" height="300" x="30" y="0"></rect><text  id="v-360" font-size="33.599999999999994px" xml:space="preserve" y="81.14000000000001" font-weight="bold" text-anchor="middle" pointer-events="visible" font-family="Tahoma, Verdana, Helvetica, Arial" fill="#ffffff" dominant-baseline="hanging" transform="matrix(1,0,0,1,240,0)" style="fill: rgb(255, 255, 255);"><tspan dy="0" >CON-04 — Event</tspan><tspan dy="1.2em" x="0" >Bus</tspan></text><text  id="v-361" font-size="16.799999999999997px" xml:space="preserve" y="163.06" text-anchor="middle" font-family="Tahoma, Verdana, Helvetica, Arial" fill="#ffffff" dominant-baseline="hanging" transform="matrix(1,0,0,1,240,0)" style="display: block; fill: rgb(255, 255, 255);"><tspan dy="0" >[Container: Kafka 3.7]</tspan></text><text  id="v-362" font-size="24px" xml:space="preserve" y="194.86" text-anchor="middle" font-family="Tahoma, Verdana, Helvetica, Arial" fill="#ffffff" dominant-baseline="hanging" transform="matrix(1,0,0,1,240,0)" style="display: block; fill: rgb(255, 255, 255);"><tspan dy="0" >Domain event distribution</tspan></text><g  id="v-363" font-weight="normal" text-anchor="middle" color="#ffffff" transform="matrix(1,0,0,1,237.5,268)" display="none" style="fill: rgb(255, 255, 255);"><g ></g><g ></g><g ></g><g ></g></g><image  id="v-364"></image></g></g><!--z-index:25--><g   id="j_33"  transform="translate(1040,719)" style=""><g  id="v-368" style="opacity: 1;"><rect  id="v-369" rx="1" ry="1" stroke-width="2" pointer-events="visiblePainted" fill="#0b6fb8" stroke="#0a64a6" stroke-dasharray="" width="450" height="300" style="fill: rgb(11, 111, 184); stroke: rgb(10, 100, 166);"></rect><text  id="v-370" font-size="33.599999999999994px" xml:space="preserve" y="81.14000000000001" font-weight="bold" text-anchor="middle" pointer-events="visible" font-family="Tahoma, Verdana, Helvetica, Arial" fill="#ffffff" dominant-baseline="hanging" transform="matrix(1,0,0,1,225,0)" style="fill: rgb(255, 255, 255);"><tspan dy="0" >CON-05 — Notification</tspan><tspan dy="1.2em" x="0" >Service</tspan></text><text  id="v-371" font-size="16.799999999999997px" xml:space="preserve" y="163.06" text-anchor="middle" font-family="Tahoma, Verdana, Helvetica, Arial" fill="#ffffff" dominant-baseline="hanging" transform="matrix(1,0,0,1,225,0)" style="display: block; fill: rgb(255, 255, 255);"><tspan dy="0" >[Container: Node.js 20]</tspan></text><text  id="v-372" font-size="24px" xml:space="preserve" y="194.86" text-anchor="middle" font-family="Tahoma, Verdana, Helvetica, Arial" fill="#ffffff" dominant-baseline="hanging" transform="matrix(1,0,0,1,225,0)" style="display: block; fill: rgb(255, 255, 255);"><tspan dy="0" >Outbound email + SMS</tspan></text><g  id="v-373" color="#ffffff" transform="matrix(1,0,0,1,222.5,268)" display="none" style="fill: rgb(255, 255, 255);"><g ></g><g ></g><g ></g><g ></g></g><image  id="v-374"></image></g></g><!--z-index:26--><g   id="j_34"  transform="translate(1830,1330)" style=""><g  id="v-381" style="opacity: 1;"><rect  id="v-382" rx="1" ry="1" stroke-width="2" pointer-events="visiblePainted" fill="#999999" stroke="#8a8a8a" stroke-dasharray="" width="450" height="300" style="fill: rgb(153, 153, 153); stroke: rgb(138, 138, 138);"></rect><text  id="v-383" font-size="33.599999999999994px" xml:space="preserve" y="81.14000000000001" font-weight="bold" text-anchor="middle" pointer-events="visible" font-family="Tahoma, Verdana, Helvetica, Arial" fill="#ffffff" dominant-baseline="hanging" transform="matrix(1,0,0,1,225,0)" style="fill: rgb(255, 255, 255);"><tspan dy="0" >SYS-02 — Payment</tspan><tspan dy="1.2em" x="0" >Gateway</tspan></text><text  id="v-384" font-size="16.799999999999997px" xml:space="preserve" y="163.06" text-anchor="middle" font-family="Tahoma, Verdana, Helvetica, Arial" fill="#ffffff" dominant-baseline="hanging" transform="matrix(1,0,0,1,225,0)" style="display: block; fill: rgb(255, 255, 255);"><tspan dy="0" >[Software System]</tspan></text><text  id="v-385" font-size="24px" xml:space="preserve" y="194.86" text-anchor="middle" font-family="Tahoma, Verdana, Helvetica, Arial" fill="#ffffff" dominant-baseline="hanging" transform="matrix(1,0,0,1,225,0)" style="display: block; fill: rgb(255, 255, 255);"><tspan dy="0" >Third-party disbursement provider</tspan></text><g  id="v-386" color="#ffffff" transform="matrix(1,0,0,1,222.5,268)" display="none" style="fill: rgb(255, 255, 255);"><g ></g><g ></g><g ></g><g ></g></g><image  id="v-387"></image></g></g><!--z-index:27--><g   id="j_35"  transform="translate(1830,1680)" style=""><g  id="v-394" style="opacity: 1;"><rect  id="v-395" rx="1" ry="1" stroke-width="2" pointer-events="visiblePainted" fill="#999999" stroke="#8a8a8a" stroke-dasharray="" width="450" height="300" style="fill: rgb(153, 153, 153); stroke: rgb(138, 138, 138);"></rect><text  id="v-396" font-size="33.599999999999994px" xml:space="preserve" y="81.14000000000001" font-weight="bold" text-anchor="middle" pointer-events="visible" font-family="Tahoma, Verdana, Helvetica, Arial" fill="#ffffff" dominant-baseline="hanging" transform="matrix(1,0,0,1,225,0)" style="fill: rgb(255, 255, 255);"><tspan dy="0" >SYS-03 — Identity</tspan><tspan dy="1.2em" x="0" >Provider</tspan></text><text  id="v-397" font-size="16.799999999999997px" xml:space="preserve" y="163.06" text-anchor="middle" font-family="Tahoma, Verdana, Helvetica, Arial" fill="#ffffff" dominant-baseline="hanging" transform="matrix(1,0,0,1,225,0)" style="display: block; fill: rgb(255, 255, 255);"><tspan dy="0" >[Software System]</tspan></text><text  id="v-398" font-size="24px" xml:space="preserve" y="194.86" text-anchor="middle" font-family="Tahoma, Verdana, Helvetica, Arial" fill="#ffffff" dominant-baseline="hanging" transform="matrix(1,0,0,1,225,0)" style="display: block; fill: rgb(255, 255, 255);"><tspan dy="0" >Corporate SSO (Azure AD)</tspan></text><g  id="v-399" color="#ffffff" transform="matrix(1,0,0,1,222.5,268)" display="none" style="fill: rgb(255, 255, 255);"><g ></g><g ></g><g ></g><g ></g></g><image  id="v-400"></image></g></g><!--z-index:28--><g   id="j_36"  style="opacity: 1;"><path fill="none" cursor="pointer" stroke="transparent" stroke-linecap="round" joint-selector="wrapper" id="v-415" stroke-width="10" stroke-linejoin="round" d="M 604.58 767 L 863 465 C 867.6666666666666 460.1333333333333 873.3333333333333 457.79999999999995 880 458 L 1040 457.4"></path><path fill="none" pointer-events="none" joint-selector="line" id="v-414" stroke="#444444" stroke-width="2" stroke-linejoin="round" stroke-dasharray="8 8" d="M 604.58 767 L 863 465 C 867.6666666666666 460.1333333333333 873.3333333333333 457.79999999999995 880 458 L 1040 457.4" marker-end="url(#v-21252848929)"></path><g id="v-404" ><g id="v-405"  label-idx="0" cursor="move" transform="matrix(1,0,0,1,870.8829956054688,446.1457824707031)" style="cursor: default;"><rect joint-selector="rect" id="v-409" fill="#ffffff" rx="3" ry="3" x="-71.91840362548828" y="-29.42222023010254" width="144.37289428710938" height="56.57777786254883" pointer-events="none"  style="display: block;"></rect><text joint-selector="text" id="v-408" font-size="24px" xml:space="preserve" fill="#444444" text-anchor="middle" pointer-events="none" font-family="Tahoma, Verdana, Helvetica, Arial" font-weight="normal"  style="display: block;"><tspan dy="-0.3em" >Sends claim</tspan><tspan dy="1.2em" x="0" >commands to</tspan></text></g><g id="v-406"  label-idx="1" cursor="move" transform="matrix(1,0,0,1,870.8829956054688,490.9457702636719)" style="cursor: default;"><rect joint-selector="rect" id="v-411" fill="#ffffff" rx="3" ry="3" x="-56.79253387451172" y="-8.848888397216797" width="114.4613037109375" height="16.66666603088379"  pointer-events="none" style="display: block;"></rect><text joint-selector="text" id="v-410" font-size="16.799999999999997px" xml:space="preserve" fill="#444444" text-anchor="middle" pointer-events="none" font-family="Tahoma, Verdana, Helvetica, Arial" font-weight="normal"  style="display: block;"><tspan dy="0.3em" >[HTTPS/JSON]</tspan></text></g><g id="v-407"  label-idx="2" cursor="move" transform="matrix(1,0,0,1,781.969970703125,587.8085327148438)" style="cursor: default;"><rect joint-selector="rect" id="v-413" fill="#ffffff" rx="3" ry="3" x="0" y="0" width="0" height="0"  display="none"></rect><text joint-selector="text" id="v-412" fill="#000000" font-size="14" text-anchor="middle" text-vertical-anchor="middle" pointer-events="none"></text></g></g></g><!--z-index:29--><g   id="j_37"  style="opacity: 1;"><path fill="none" cursor="pointer" stroke="transparent" stroke-linecap="round" joint-selector="wrapper" id="v-430" stroke-width="10" stroke-linejoin="round" d="M 1490 392.06 L 1650 346 C 1656.6666666666665 344 1663.333333333333 343 1670 343 L 1830 343"></path><path fill="none" pointer-events="none" joint-selector="line" id="v-429" stroke="#444444" stroke-width="2" stroke-linejoin="round" stroke-dasharray="8 8" d="M 1490 392.06 L 1650 346 C 1656.6666666666665 344 1663.333333333333 343 1670 343 L 1830 343" marker-end="url(#v-21252848929)"></path><g id="v-419" ><g id="v-420"  label-idx="0" cursor="move" transform="matrix(1,0,0,1,1660.15625,330.3267517089844)" style="cursor: default;"><rect joint-selector="rect" id="v-424" fill="#ffffff" rx="3" ry="3" x="-72.2439193725586" y="-29.42222023010254" width="144.4878387451172" height="56.57777786254883" pointer-events="none"  style="display: block;"></rect><text joint-selector="text" id="v-423" font-size="24px" xml:space="preserve" fill="#444444" text-anchor="middle" pointer-events="none" font-family="Tahoma, Verdana, Helvetica, Arial" font-weight="normal"  style="display: block;"><tspan dy="-0.3em" >Reads from +</tspan><tspan dy="1.2em" x="0" >writes to</tspan></text></g><g id="v-421"  label-idx="1" cursor="move" transform="matrix(1,0,0,1,1660.15625,375.1267395019531)" style="cursor: default;"><rect joint-selector="rect" id="v-426" fill="#ffffff" rx="3" ry="3" x="-40.5164909362793" y="-8.848888397216797" width="81.89510345458984" height="16.66666603088379"  pointer-events="none" style="display: block;"></rect><text joint-selector="text" id="v-425" font-size="16.799999999999997px" xml:space="preserve" fill="#444444" text-anchor="middle" pointer-events="none" font-family="Tahoma, Verdana, Helvetica, Arial" font-weight="normal"  style="display: block;"><tspan dy="0.3em" >[SQL/TCP]</tspan></text></g><g id="v-422"  label-idx="2" cursor="move" transform="matrix(1,0,0,1,1646.6796875,384.1307373046875)" style="cursor: default;"><rect joint-selector="rect" id="v-428" fill="#ffffff" rx="3" ry="3" x="-4.547473508864641e-13" y="0" width="0" height="0"  display="none"></rect><text joint-selector="text" id="v-427" fill="#000000" font-size="14" text-anchor="middle" text-vertical-anchor="middle" pointer-events="none"></text></g></g></g><!--z-index:30--><g   id="j_38"  style="opacity: 1;"><path fill="none" cursor="pointer" stroke="transparent" stroke-linecap="round" joint-selector="wrapper" id="v-448" stroke-width="10" stroke-linejoin="round" d="M 1490 528.66 L 1650 580 C 1656.6666666666665 581.8666666666666 1662.9999999999998 584.1999999999999 1669 587 L 1830 656.91"></path><path fill="none" pointer-events="none" joint-selector="line" id="v-447" stroke="#444444" stroke-width="2" stroke-linejoin="round" stroke-dasharray="8 8" d="M 1490 528.66 L 1650 580 C 1656.6666666666665 581.8666666666666 1662.9999999999998 584.1999999999999 1669 587 L 1830 656.91" marker-end="url(#v-21252848929)"></path><g id="v-437" ><g id="v-438"  label-idx="0" cursor="move" transform="matrix(1,0,0,1,1659.787109375,569.763671875)" style="cursor: default;"><rect joint-selector="rect" id="v-442" fill="#ffffff" rx="3" ry="3" x="-94.57464599609375" y="-29.42222023010254" width="189.68081665039062" height="56.57777786254883" pointer-events="none"  style="display: block;"></rect><text joint-selector="text" id="v-441" font-size="24px" xml:space="preserve" fill="#444444" text-anchor="middle" pointer-events="none" font-family="Tahoma, Verdana, Helvetica, Arial" font-weight="normal"  style="display: block;"><tspan dy="-0.3em" >Publishes domain</tspan><tspan dy="1.2em" x="0" >events to</tspan></text></g><g id="v-439"  label-idx="1" cursor="move" transform="matrix(1,0,0,1,1659.787109375,614.5636596679688)" style="cursor: default;"><rect joint-selector="rect" id="v-444" fill="#ffffff" rx="3" ry="3" x="-58.224822998046875" y="-8.848888397216797" width="117.3080825805664" height="16.66666603088379"  pointer-events="none" style="display: block;"></rect><text joint-selector="text" id="v-443" font-size="16.799999999999997px" xml:space="preserve" fill="#444444" text-anchor="middle" pointer-events="none" font-family="Tahoma, Verdana, Helvetica, Arial" font-weight="normal"  style="display: block;"><tspan dy="0.3em" >[Kafka protocol]</tspan></text></g><g id="v-440"  label-idx="2" cursor="move" transform="matrix(1,0,0,1,1653.1318359375,624.2529907226562)" style="cursor: default;"><rect joint-selector="rect" id="v-446" fill="#ffffff" rx="3" ry="3" x="0" y="0" width="0" height="0"  display="none"></rect><text joint-selector="text" id="v-445" fill="#000000" font-size="14" text-anchor="middle" text-vertical-anchor="middle" pointer-events="none"></text></g></g></g><!--z-index:31--><g   id="j_39"  style="opacity: 1;"><path fill="none" cursor="pointer" stroke="transparent" stroke-linecap="round" joint-selector="wrapper" id="v-466" stroke-width="10" stroke-linejoin="round" d="M 1490 842.57 L 1650 824 C 1656.6666666666665 823.0666666666665 1663.333333333333 822.0666666666665 1670 821 L 1830 793.51"></path><path fill="none" pointer-events="none" joint-selector="line" id="v-465" stroke="#444444" stroke-width="2" stroke-linejoin="round" stroke-dasharray="8 8" d="M 1490 842.57 L 1650 824 C 1656.6666666666665 823.0666666666665 1663.333333333333 822.0666666666665 1670 821 L 1830 793.51" marker-end="url(#v-21252848929)"></path><g id="v-455" ><g id="v-456"  label-idx="0" cursor="move" transform="matrix(1,0,0,1,1660.0390625,809.1441650390625)" style="cursor: default;"><rect joint-selector="rect" id="v-460" fill="#ffffff" rx="3" ry="3" x="-95.8984375" y="-29.42222023010254" width="191.796875" height="56.57777786254883" pointer-events="none"  style="display: block;"></rect><text joint-selector="text" id="v-459" font-size="24px" xml:space="preserve" fill="#444444" text-anchor="middle" pointer-events="none" font-family="Tahoma, Verdana, Helvetica, Arial" font-weight="normal"  style="display: block;"><tspan dy="-0.3em" >Consumes events</tspan><tspan dy="1.2em" x="0" >from</tspan></text></g><g id="v-457"  label-idx="1" cursor="move" transform="matrix(1,0,0,1,1660.0390625,853.9441528320312)" style="cursor: default;"><rect joint-selector="rect" id="v-462" fill="#ffffff" rx="3" ry="3" x="-58.224822998046875" y="-8.848888397216797" width="117.3080825805664" height="16.66666603088379"  pointer-events="none" style="display: block;"></rect><text joint-selector="text" id="v-461" font-size="16.799999999999997px" xml:space="preserve" fill="#444444" text-anchor="middle" pointer-events="none" font-family="Tahoma, Verdana, Helvetica, Arial" font-weight="normal"  style="display: block;"><tspan dy="0.3em" >[Kafka protocol]</tspan></text></g><g id="v-458"  label-idx="2" cursor="move" transform="matrix(1,0,0,1,1650.625,862.2560424804688)" style="cursor: default;"><rect joint-selector="rect" id="v-464" fill="#ffffff" rx="3" ry="3" x="-4.547473508864641e-13" y="0" width="0" height="0"  display="none"></rect><text joint-selector="text" id="v-463" fill="#000000" font-size="14" text-anchor="middle" text-vertical-anchor="middle" pointer-events="none"></text></g></g></g><!--z-index:32--><g   id="j_40"  style="opacity: 1;"><path fill="none" cursor="pointer" stroke="transparent" stroke-linecap="round" joint-selector="wrapper" id="v-481" stroke-width="10" stroke-linejoin="round" d="M 1384.65 607 L 1654 944 C 1657.9999999999998 949.4666666666666 1661.9999999999998 954.8 1666 960 L 1942.74 1330"></path><path fill="none" pointer-events="none" joint-selector="line" id="v-480" stroke="#444444" stroke-width="2" stroke-linejoin="round" stroke-dasharray="8 8" d="M 1384.65 607 L 1654 944 C 1657.9999999999998 949.4666666666666 1661.9999999999998 954.8 1666 960 L 1942.74 1330" marker-end="url(#v-21252848929)"></path><g id="v-470" ><g id="v-471"  label-idx="0" cursor="move" transform="matrix(1,0,0,1,1659.71875,938.3247680664062)" style="cursor: default;"><rect joint-selector="rect" id="v-475" fill="#ffffff" rx="3" ry="3" x="-90.55989074707031" y="-29.42222023010254" width="181.6674041748047" height="56.57777786254883" pointer-events="none"  style="display: block;"></rect><text joint-selector="text" id="v-474" font-size="24px" xml:space="preserve" fill="#444444" text-anchor="middle" pointer-events="none" font-family="Tahoma, Verdana, Helvetica, Arial" font-weight="normal"  style="display: block;"><tspan dy="-0.3em" >Initiates</tspan><tspan dy="1.2em" x="0" >disbursement via</tspan></text></g><g id="v-472"  label-idx="1" cursor="move" transform="matrix(1,0,0,1,1659.71875,983.124755859375)" style="cursor: default;"><rect joint-selector="rect" id="v-477" fill="#ffffff" rx="3" ry="3" x="-56.79253387451172" y="-8.848888397216797" width="114.4613037109375" height="16.66666603088379"  pointer-events="none" style="display: block;"></rect><text joint-selector="text" id="v-476" font-size="16.799999999999997px" xml:space="preserve" fill="#444444" text-anchor="middle" pointer-events="none" font-family="Tahoma, Verdana, Helvetica, Arial" font-weight="normal"  style="display: block;"><tspan dy="0.3em" >[HTTPS/JSON]</tspan></text></g><g id="v-473"  label-idx="2" cursor="move" transform="matrix(1,0,0,1,1659.1832275390625,1004.0559692382812)" style="cursor: default;"><rect joint-selector="rect" id="v-479" fill="#ffffff" rx="3" ry="3" x="0" y="0" width="0" height="0"  display="none"></rect><text joint-selector="text" id="v-478" fill="#000000" font-size="14" text-anchor="middle" text-vertical-anchor="middle" pointer-events="none"></text></g></g></g><!--z-index:33--><g   id="j_41"  style="opacity: 1;"><path fill="none" cursor="pointer" stroke="transparent" stroke-linecap="round" joint-selector="wrapper" id="v-496" stroke-width="10" stroke-linejoin="round" d="M 1362.07 607 L 1655 1059 C 1658.333333333333 1064.6 1661.6666666666665 1070.2666666666664 1665 1076 L 1977.31 1680"></path><path fill="none" pointer-events="none" joint-selector="line" id="v-495" stroke="#444444" stroke-width="2" stroke-linejoin="round" stroke-dasharray="8 8" d="M 1362.07 607 L 1655 1059 C 1658.333333333333 1064.6 1661.6666666666665 1070.2666666666664 1665 1076 L 1977.31 1680" marker-end="url(#v-21252848929)"></path><g id="v-485" ><g id="v-486"  label-idx="0" cursor="move" transform="matrix(1,0,0,1,1659.6875,1053.5189208984375)" style="cursor: default;"><rect joint-selector="rect" id="v-490" fill="#ffffff" rx="3" ry="3" x="-91.23263549804688" y="-15.022221565246582" width="183.0244140625" height="27.77777671813965" pointer-events="none"  style="display: block;"></rect><text joint-selector="text" id="v-489" font-size="24px" xml:space="preserve" fill="#444444" text-anchor="middle" pointer-events="none" font-family="Tahoma, Verdana, Helvetica, Arial" font-weight="normal"  style="display: block;"><tspan dy="0.3em" >Authenticates via</tspan></text></g><g id="v-487"  label-idx="1" cursor="move" transform="matrix(1,0,0,1,1659.6875,1083.9189453125)" style="cursor: default;"><rect joint-selector="rect" id="v-492" fill="#ffffff" rx="3" ry="3" x="-25.607637405395508" y="-8.848888397216797" width="52.0938835144043" height="16.66666603088379"  pointer-events="none" style="display: block;"></rect><text joint-selector="text" id="v-491" font-size="16.799999999999997px" xml:space="preserve" fill="#444444" text-anchor="middle" pointer-events="none" font-family="Tahoma, Verdana, Helvetica, Arial" font-weight="normal"  style="display: block;"><tspan dy="0.3em" >[OIDC]</tspan></text></g><g id="v-488"  label-idx="2" cursor="move" transform="matrix(1,0,0,1,1682.9306640625,1155.417236328125)" style="cursor: default;"><rect joint-selector="rect" id="v-494" fill="#ffffff" rx="3" ry="3" x="0" y="0" width="0" height="0"  display="none"></rect><text joint-selector="text" id="v-493" fill="#000000" font-size="14" text-anchor="middle" text-vertical-anchor="middle" pointer-events="none"></text></g></g></g><!--z-index:34--><g   id="j_42"  style="opacity: 1;"><path fill="none" cursor="pointer" stroke="transparent" stroke-linecap="round" joint-selector="wrapper" id="v-511" stroke-width="10" stroke-linejoin="round" d="M 700 1046.05 L 861 1138 C 867 1141.1999999999998 873.3333333333333 1142.8666666666666 880 1143 L 1650 1143 C 1656.6666666666665 1142.8666666666666 1661.6666666666665 1145.5333333333333 1665 1151 L 1968.78 1680"></path><path fill="none" pointer-events="none" joint-selector="line" id="v-510" stroke="#444444" stroke-width="2" stroke-linejoin="round" stroke-dasharray="8 8" d="M 700 1046.05 L 861 1138 C 867 1141.1999999999998 873.3333333333333 1142.8666666666666 880 1143 L 1650 1143 C 1656.6666666666665 1142.8666666666666 1661.6666666666665 1145.5333333333333 1665 1151 L 1968.78 1680" marker-end="url(#v-21252848929)"></path><g id="v-500" ><g id="v-501"  label-idx="0" cursor="move" transform="matrix(1,0,0,1,1264.4443359375,1129.5999755859375)" style="cursor: default;"><rect joint-selector="rect" id="v-505" fill="#ffffff" rx="3" ry="3" x="-91.23263549804688" y="-15.022221565246582" width="183.0244140625" height="27.77777671813965" pointer-events="none"  style="display: block;"></rect><text joint-selector="text" id="v-504" font-size="24px" xml:space="preserve" fill="#444444" text-anchor="middle" pointer-events="none" font-family="Tahoma, Verdana, Helvetica, Arial" font-weight="normal"  style="display: block;"><tspan dy="0.3em" >Authenticates via</tspan></text></g><g id="v-502"  label-idx="1" cursor="move" transform="matrix(1,0,0,1,1264.4443359375,1160)" style="cursor: default;"><rect joint-selector="rect" id="v-507" fill="#ffffff" rx="3" ry="3" x="-25.607637405395508" y="-8.848888397216797" width="52.0938835144043" height="16.66666603088379"  pointer-events="none" style="display: block;"></rect><text joint-selector="text" id="v-506" font-size="16.799999999999997px" xml:space="preserve" fill="#444444" text-anchor="middle" pointer-events="none" font-family="Tahoma, Verdana, Helvetica, Arial" font-weight="normal"  style="display: block;"><tspan dy="0.3em" >[OIDC]</tspan></text></g><g id="v-503"  label-idx="2" cursor="move" transform="matrix(1,0,0,1,1466.336181640625,1168.4000244140625)" style="cursor: default;"><rect joint-selector="rect" id="v-509" fill="#ffffff" rx="3" ry="3" x="0" y="0" width="0" height="0"  display="none"></rect><text joint-selector="text" id="v-508" fill="#000000" font-size="14" text-anchor="middle" text-vertical-anchor="middle" pointer-events="none"></text></g></g></g><!--z-index:35--></g><g  style="user-select: none;"></g><g ></g><g  display="none"></g></g></svg>