<svg xmlns="http://www.w3.org/2000/svg" xmlns:xlink="http://www.w3.org/1999/xlink" version="1.1" width="2380" height="1250" style="width: 2380px; height: 1250px; background: #ffffff" viewBox="0 0 2380 1250"><style id="v-3" type="text/css">        .joint-element .scalable * {            vector-effect: non-scaling-stroke;        }    </style><defs joint-selector="defs"><marker id="v-21252848929" orient="auto" overflow="visible" markerUnits="userSpaceOnUse"><path id="v-97" stroke="#444444" fill="#444444" transform="rotate(180)" d="M 20 -10 0 0 20 10 Z"></path></marker></defs><g joint-selector="layers"  transform="matrix(1,0,0,1,0,0)"><g  style="pointer-events: none;"></g><g ></g><g  style="user-select: none;"><!--z-index:0--><!--z-index:1--><!--z-index:2--><!--z-index:3--><!--z-index:4--><!--z-index:5--><!--z-index:6--><!--z-index:7--><!--z-index:8--><!--z-index:9--><!--z-index:10--><!--z-index:11--><g   id="j_15"  transform="translate(20,1206)"><g id="v-153"><text  id="v-154" font-size="24px" xml:space="preserve" y="0.8em" font-weight="normal" text-anchor="start" fill="#444444" pointer-events="none" display="block" font-family="Tahoma, Verdana, Helvetica, Arial"><tspan dy="0" >Thursday, May 28, 2026 at 6:26 AM Coordinated Universal Time</tspan></text></g></g><!--z-index:12--><g   id="j_14"  transform="translate(20,1172)"><g id="v-151"><text  id="v-152" font-size="24px" xml:space="preserve" y="0.8em" font-weight="normal" text-anchor="start" fill="#444444" pointer-events="none" display="block" font-family="Tahoma, Verdana, Helvetica, Arial"><tspan dy="0" >SYS-01 — System Context (arc42 §3).</tspan></text></g></g><!--z-index:13--><g   id="j_13"  transform="translate(20,1126)"><g id="v-149"><text  id="v-150" font-size="36px" xml:space="preserve" y="0.8em" font-weight="normal" text-anchor="start" fill="#444444" pointer-events="none" display="block" font-family="Tahoma, Verdana, Helvetica, Arial"><tspan dy="0" >System Context View: SYS-01 — Claims Platform</tspan></text></g></g><!--z-index:14--><g   id="j_16"  transform="translate(199,142)" style=""><g  id="v-161" style="opacity: 1;"><rect  x="0" y="160" width="400" height="240" rx="70" id="v-163" stroke-width="2" pointer-events="visiblePainted" fill="#08427b" stroke="#073b6f" stroke-dasharray="" style="fill: rgb(8, 66, 123); stroke: rgb(7, 59, 111);"></rect><circle  cx="200" cy="88.88888888888889" r="88.88888888888889" id="v-162" stroke-width="2" pointer-events="visiblePainted" fill="#08427b" stroke="#073b6f" stroke-dasharray="" style="fill: rgb(8, 66, 123); stroke: rgb(7, 59, 111);"></circle><line  x1="80" y1="266.6666666666667" x2="80" y2="400" id="v-169" stroke="#073b6f" stroke-width="1" stroke-dasharray="" style="stroke: rgb(7, 59, 111);"></line><line  x1="320" y1="266.6666666666667" x2="320" y2="400" id="v-170" stroke="#073b6f" stroke-width="1" stroke-dasharray="" style="stroke: rgb(7, 59, 111);"></line><text  id="v-164" font-size="33.599999999999994px" xml:space="preserve" y="196.74" font-weight="bold" text-anchor="middle" pointer-events="visible" font-family="Tahoma, Verdana, Helvetica, Arial" fill="#ffffff" dominant-baseline="hanging" transform="matrix(1,0,0,1,200,0)" style="fill: rgb(255, 255, 255);"><tspan dy="0" >P-01 — Claims</tspan><tspan dy="1.2em" x="0" >Handler</tspan></text><text  id="v-165" font-size="16.799999999999997px" xml:space="preserve" y="278.65999999999997" text-anchor="middle" font-family="Tahoma, Verdana, Helvetica, Arial" fill="#ffffff" dominant-baseline="hanging" transform="matrix(1,0,0,1,200,0)" style="display: block; fill: rgb(255, 255, 255);"><tspan dy="0" >[Person]</tspan></text><text  id="v-166" font-size="24px" xml:space="preserve" y="310.46" text-anchor="middle" font-family="Tahoma, Verdana, Helvetica, Arial" fill="#ffffff" dominant-baseline="hanging" transform="matrix(1,0,0,1,200,0)" style="display: block; fill: rgb(255, 255, 255);"><tspan dy="0" >Insurance employee triaging</tspan><tspan dy="1.2em" x="0" >claims</tspan></text><g  id="v-167" font-weight="normal" text-anchor="middle" color="#ffffff" transform="matrix(1,0,0,1,197.5,368)" display="none" style="fill: rgb(255, 255, 255);"><g ></g><g ></g><g ></g><g ></g></g><image  id="v-168"></image></g></g><!--z-index:15--><g   id="j_17"  transform="translate(199,592)" style=""><g  id="v-177" style="opacity: 1;"><rect  x="0" y="160" width="400" height="240" rx="70" id="v-179" stroke-width="2" pointer-events="visiblePainted" fill="#999999" stroke="#8a8a8a" stroke-dasharray="" style="fill: rgb(153, 153, 153); stroke: rgb(138, 138, 138);"></rect><circle  cx="200" cy="88.88888888888889" r="88.88888888888889" id="v-178" stroke-width="2" pointer-events="visiblePainted" fill="#999999" stroke="#8a8a8a" stroke-dasharray="" style="fill: rgb(153, 153, 153); stroke: rgb(138, 138, 138);"></circle><line  x1="80" y1="266.6666666666667" x2="80" y2="400" id="v-185" stroke="#8a8a8a" stroke-width="1" stroke-dasharray="" style="stroke: rgb(138, 138, 138);"></line><line  x1="320" y1="266.6666666666667" x2="320" y2="400" id="v-186" stroke="#8a8a8a" stroke-width="1" stroke-dasharray="" style="stroke: rgb(138, 138, 138);"></line><text  id="v-180" font-size="33.599999999999994px" xml:space="preserve" y="231.3" font-weight="bold" text-anchor="middle" pointer-events="visible" font-family="Tahoma, Verdana, Helvetica, Arial" fill="#ffffff" dominant-baseline="hanging" transform="matrix(1,0,0,1,200,0)" style="fill: rgb(255, 255, 255);"><tspan dy="0" >P-02 — Customer</tspan></text><text  id="v-181" font-size="16.799999999999997px" xml:space="preserve" y="272.9" text-anchor="middle" font-family="Tahoma, Verdana, Helvetica, Arial" fill="#ffffff" dominant-baseline="hanging" transform="matrix(1,0,0,1,200,0)" style="display: block; fill: rgb(255, 255, 255);"><tspan dy="0" >[Person]</tspan></text><text  id="v-182" font-size="24px" xml:space="preserve" y="304.7" text-anchor="middle" font-family="Tahoma, Verdana, Helvetica, Arial" fill="#ffffff" dominant-baseline="hanging" transform="matrix(1,0,0,1,200,0)" style="display: block; fill: rgb(255, 255, 255);"><tspan dy="0" >Policyholder submitting a claim</tspan></text><g  id="v-183" font-weight="normal" text-anchor="middle" color="#ffffff" transform="matrix(1,0,0,1,197.5,368)" display="none" style="fill: rgb(255, 255, 255);"><g ></g><g ></g><g ></g><g ></g></g><image  id="v-184"></image></g></g><!--z-index:16--><g   id="j_18"  transform="translate(939,417)" style=""><g  id="v-193" style="opacity: 1;"><rect  id="v-194" rx="1" ry="1" stroke-width="2" pointer-events="visiblePainted" fill="#0b6fb8" stroke="#0a64a6" stroke-dasharray="" width="450" height="300" style="fill: rgb(11, 111, 184); stroke: rgb(10, 100, 166);"></rect><text  id="v-195" font-size="33.599999999999994px" xml:space="preserve" y="66.74000000000001" font-weight="bold" text-anchor="middle" pointer-events="visible" font-family="Tahoma, Verdana, Helvetica, Arial" fill="#ffffff" dominant-baseline="hanging" transform="matrix(1,0,0,1,225,0)" style="fill: rgb(255, 255, 255);"><tspan dy="0" >SYS-01 — Claims</tspan><tspan dy="1.2em" x="0" >Platform</tspan></text><text  id="v-196" font-size="16.799999999999997px" xml:space="preserve" y="148.66" text-anchor="middle" font-family="Tahoma, Verdana, Helvetica, Arial" fill="#ffffff" dominant-baseline="hanging" transform="matrix(1,0,0,1,225,0)" style="display: block; fill: rgb(255, 255, 255);"><tspan dy="0" >[Software System]</tspan></text><text  id="v-197" font-size="24px" xml:space="preserve" y="180.45999999999998" text-anchor="middle" font-family="Tahoma, Verdana, Helvetica, Arial" fill="#ffffff" dominant-baseline="hanging" transform="matrix(1,0,0,1,225,0)" style="display: block; fill: rgb(255, 255, 255);"><tspan dy="0" >Manages the claim lifecycle from</tspan><tspan dy="1.2em" x="0" >submission to disbursement</tspan></text><g  id="v-198" color="#ffffff" transform="matrix(1,0,0,1,210,268)" display="none" style="fill: rgb(255, 255, 255);"><g  transform="translate(5 0)"><svg xmlns="http://www.w3.org/2000/svg" width="20" height="20" fill="currentColor" viewBox="0 0 16 16"><path fill-rule="evenodd" d="M6.5 12a5.5 5.5 0 1 0 0-11 5.5 5.5 0 0 0 0 11zM13 6.5a6.5 6.5 0 1 1-13 0 6.5 6.5 0 0 1 13 0z"></path><path d="M10.344 11.742c.03.04.062.078.098.115l3.85 3.85a1 1 0 0 0 1.415-1.414l-3.85-3.85a1.007 1.007 0 0 0-.115-.1 6.538 6.538 0 0 1-1.398 1.4z"></path><path fill-rule="evenodd" d="M6.5 3a.5.5 0 0 1 .5.5V6h2.5a.5.5 0 0 1 0 1H7v2.5a.5.5 0 0 1-1 0V7H3.5a.5.5 0 0 1 0-1H6V3.5a.5.5 0 0 1 .5-.5z"></path></svg></g><g ></g><g ></g><g ></g></g><image  id="v-199"></image></g></g><!--z-index:17--><g   id="j_19"  transform="translate(1729,242)" style=""><g  id="v-206" style="opacity: 1;"><rect  id="v-207" rx="1" ry="1" stroke-width="2" pointer-events="visiblePainted" fill="#999999" stroke="#8a8a8a" stroke-dasharray="" width="450" height="300" style="fill: rgb(153, 153, 153); stroke: rgb(138, 138, 138);"></rect><text  id="v-208" font-size="33.599999999999994px" xml:space="preserve" y="81.14000000000001" font-weight="bold" text-anchor="middle" pointer-events="visible" font-family="Tahoma, Verdana, Helvetica, Arial" fill="#ffffff" dominant-baseline="hanging" transform="matrix(1,0,0,1,225,0)" style="fill: rgb(255, 255, 255);"><tspan dy="0" >SYS-02 — Payment</tspan><tspan dy="1.2em" x="0" >Gateway</tspan></text><text  id="v-209" font-size="16.799999999999997px" xml:space="preserve" y="163.06" text-anchor="middle" font-family="Tahoma, Verdana, Helvetica, Arial" fill="#ffffff" dominant-baseline="hanging" transform="matrix(1,0,0,1,225,0)" style="display: block; fill: rgb(255, 255, 255);"><tspan dy="0" >[Software System]</tspan></text><text  id="v-210" font-size="24px" xml:space="preserve" y="194.86" text-anchor="middle" font-family="Tahoma, Verdana, Helvetica, Arial" fill="#ffffff" dominant-baseline="hanging" transform="matrix(1,0,0,1,225,0)" style="display: block; fill: rgb(255, 255, 255);"><tspan dy="0" >Third-party disbursement provider</tspan></text><g  id="v-211" color="#ffffff" transform="matrix(1,0,0,1,222.5,268)" display="none" style="fill: rgb(255, 255, 255);"><g ></g><g ></g><g ></g><g ></g></g><image  id="v-212"></image></g></g><!--z-index:18--><g   id="j_20"  transform="translate(1729,592)" style=""><g  id="v-219" style="opacity: 1;"><rect  id="v-220" rx="1" ry="1" stroke-width="2" pointer-events="visiblePainted" fill="#999999" stroke="#8a8a8a" stroke-dasharray="" width="450" height="300" style="fill: rgb(153, 153, 153); stroke: rgb(138, 138, 138);"></rect><text  id="v-221" font-size="33.599999999999994px" xml:space="preserve" y="81.14000000000001" font-weight="bold" text-anchor="middle" pointer-events="visible" font-family="Tahoma, Verdana, Helvetica, Arial" fill="#ffffff" dominant-baseline="hanging" transform="matrix(1,0,0,1,225,0)" style="fill: rgb(255, 255, 255);"><tspan dy="0" >SYS-03 — Identity</tspan><tspan dy="1.2em" x="0" >Provider</tspan></text><text  id="v-222" font-size="16.799999999999997px" xml:space="preserve" y="163.06" text-anchor="middle" font-family="Tahoma, Verdana, Helvetica, Arial" fill="#ffffff" dominant-baseline="hanging" transform="matrix(1,0,0,1,225,0)" style="display: block; fill: rgb(255, 255, 255);"><tspan dy="0" >[Software System]</tspan></text><text  id="v-223" font-size="24px" xml:space="preserve" y="194.86" text-anchor="middle" font-family="Tahoma, Verdana, Helvetica, Arial" fill="#ffffff" dominant-baseline="hanging" transform="matrix(1,0,0,1,225,0)" style="display: block; fill: rgb(255, 255, 255);"><tspan dy="0" >Corporate SSO (Azure AD)</tspan></text><g  id="v-224" color="#ffffff" transform="matrix(1,0,0,1,222.5,268)" display="none" style="fill: rgb(255, 255, 255);"><g ></g><g ></g><g ></g><g ></g></g><image  id="v-225"></image></g></g><!--z-index:19--><g   id="j_21"  style="opacity: 1;"><path fill="none" cursor="pointer" stroke="transparent" stroke-linecap="round" joint-selector="wrapper" id="v-240" stroke-width="10" stroke-linejoin="round" d="M 599 342 L 759 342 C 765.6666666666666 342 772 343.66666666666663 778 347 L 939 438.84"></path><path fill="none" pointer-events="none" joint-selector="line" id="v-239" stroke="#444444" stroke-width="2" stroke-linejoin="round" stroke-dasharray="8 8" d="M 599 342 L 759 342 C 765.6666666666666 342 772 343.66666666666663 778 347 L 939 438.84" marker-end="url(#v-21252848929)"></path><g id="v-229" ><g id="v-230"  label-idx="0" cursor="move" transform="matrix(1,0,0,1,768.712890625,329.8402404785156)" style="cursor: default;"><rect joint-selector="rect" id="v-234" fill="#ffffff" rx="3" ry="3" x="-95.45275115966797" y="-15.112499237060547" width="192.4497528076172" height="27.890623092651367" pointer-events="none"  style="display: block;"></rect><text joint-selector="text" id="v-233" font-size="24px" xml:space="preserve" fill="#444444" text-anchor="middle" pointer-events="none" font-family="Tahoma, Verdana, Helvetica, Arial" font-weight="normal"  style="display: block;"><tspan dy="0.3em" >Triages claims via</tspan></text></g><g id="v-231"  label-idx="1" cursor="move" transform="matrix(1,0,0,1,768.712890625,360.2402648925781)" style="cursor: default;"><rect joint-selector="rect" id="v-236" fill="#ffffff" rx="3" ry="3" x="-62.260005950927734" y="-9.834999084472656" width="124.52001190185547" height="18.593748092651367"  pointer-events="none" style="display: block;"></rect><text joint-selector="text" id="v-235" font-size="16.799999999999997px" xml:space="preserve" fill="#444444" text-anchor="middle" pointer-events="none" font-family="Tahoma, Verdana, Helvetica, Arial" font-weight="normal"  style="display: block;"><tspan dy="0.3em" >[HTTPS/Web UI]</tspan></text></g><g id="v-232"  label-idx="2" cursor="move" transform="matrix(1,0,0,1,770.3849487304688,373.7604675292969)" style="cursor: default;"><rect joint-selector="rect" id="v-238" fill="#ffffff" rx="3" ry="3" x="0" y="0" width="0" height="0"  display="none"></rect><text joint-selector="text" id="v-237" fill="#000000" font-size="14" text-anchor="middle" text-vertical-anchor="middle" pointer-events="none"></text></g></g></g><!--z-index:20--><g   id="j_22"  style="opacity: 1;"><path fill="none" cursor="pointer" stroke="transparent" stroke-linecap="round" joint-selector="wrapper" id="v-255" stroke-width="10" stroke-linejoin="round" d="M 599 792 L 759 792 C 765.6666666666666 792 772 790.3333333333333 778 787 L 939 695.16"></path><path fill="none" pointer-events="none" joint-selector="line" id="v-254" stroke="#444444" stroke-width="2" stroke-linejoin="round" stroke-dasharray="8 8" d="M 599 792 L 759 792 C 765.6666666666666 792 772 790.3333333333333 778 787 L 939 695.16" marker-end="url(#v-21252848929)"></path><g id="v-244" ><g id="v-245"  label-idx="0" cursor="move" transform="matrix(1,0,0,1,768.712890625,777.3597412109375)" style="cursor: default;"><rect joint-selector="rect" id="v-249" fill="#ffffff" rx="3" ry="3" x="-99.22960662841797" y="-15.112499237060547" width="199.9990692138672" height="27.890623092651367" pointer-events="none"  style="display: block;"></rect><text joint-selector="text" id="v-248" font-size="24px" xml:space="preserve" fill="#444444" text-anchor="middle" pointer-events="none" font-family="Tahoma, Verdana, Helvetica, Arial" font-weight="normal"  style="display: block;"><tspan dy="0.3em" >Submits claims via</tspan></text></g><g id="v-246"  label-idx="1" cursor="move" transform="matrix(1,0,0,1,768.712890625,807.759765625)" style="cursor: default;"><rect joint-selector="rect" id="v-251" fill="#ffffff" rx="3" ry="3" x="-62.260005950927734" y="-9.834999084472656" width="124.52001190185547" height="18.593748092651367"  pointer-events="none" style="display: block;"></rect><text joint-selector="text" id="v-250" font-size="16.799999999999997px" xml:space="preserve" fill="#444444" text-anchor="middle" pointer-events="none" font-family="Tahoma, Verdana, Helvetica, Arial" font-weight="normal"  style="display: block;"><tspan dy="0.3em" >[HTTPS/Web UI]</tspan></text></g><g id="v-247"  label-idx="2" cursor="move" transform="matrix(1,0,0,1,770.3849487304688,811.03955078125)" style="cursor: default;"><rect joint-selector="rect" id="v-253" fill="#ffffff" rx="3" ry="3" x="0" y="0" width="0" height="0"  display="none"></rect><text joint-selector="text" id="v-252" fill="#000000" font-size="14" text-anchor="middle" text-vertical-anchor="middle" pointer-events="none"></text></g></g></g><!--z-index:21--><g   id="j_23"  style="opacity: 1;"><path fill="none" cursor="pointer" stroke="transparent" stroke-linecap="round" joint-selector="wrapper" id="v-270" stroke-width="10" stroke-linejoin="round" d="M 1389 467.32 L 1550 396 C 1556 393.3333333333333 1562.3333333333333 392 1569 392 L 1729 392"></path><path fill="none" pointer-events="none" joint-selector="line" id="v-269" stroke="#444444" stroke-width="2" stroke-linejoin="round" stroke-dasharray="8 8" d="M 1389 467.32 L 1550 396 C 1556 393.3333333333333 1562.3333333333333 392 1569 392 L 1729 392" marker-end="url(#v-21252848929)"></path><g id="v-259" ><g id="v-260"  label-idx="0" cursor="move" transform="matrix(1,0,0,1,1559.212890625,379.6078186035156)" style="cursor: default;"><rect joint-selector="rect" id="v-264" fill="#ffffff" rx="3" ry="3" x="-90.60094451904297" y="-29.512496948242188" width="182.72488403320312" height="56.69062423706055" pointer-events="none"  style="display: block;"></rect><text joint-selector="text" id="v-263" font-size="24px" xml:space="preserve" fill="#444444" text-anchor="middle" pointer-events="none" font-family="Tahoma, Verdana, Helvetica, Arial" font-weight="normal"  style="display: block;"><tspan dy="-0.3em" >Initiates</tspan><tspan dy="1.2em" x="0" >disbursement via</tspan></text></g><g id="v-261"  label-idx="1" cursor="move" transform="matrix(1,0,0,1,1559.212890625,424.4078369140625)" style="cursor: default;"><rect joint-selector="rect" id="v-266" fill="#ffffff" rx="3" ry="3" x="-56.827144622802734" y="-9.834999084472656" width="113.65428924560547" height="18.593748092651367"  pointer-events="none" style="display: block;"></rect><text joint-selector="text" id="v-265" font-size="16.799999999999997px" xml:space="preserve" fill="#444444" text-anchor="middle" pointer-events="none" font-family="Tahoma, Verdana, Helvetica, Arial" font-weight="normal"  style="display: block;"><tspan dy="0.3em" >[HTTPS/JSON]</tspan></text></g><g id="v-262"  label-idx="2" cursor="move" transform="matrix(1,0,0,1,1541.5897216796875,435.1277770996094)" style="cursor: default;"><rect joint-selector="rect" id="v-268" fill="#ffffff" rx="3" ry="3" x="0" y="0" width="0" height="0"  display="none"></rect><text joint-selector="text" id="v-267" fill="#000000" font-size="14" text-anchor="middle" text-vertical-anchor="middle" pointer-events="none"></text></g></g></g><!--z-index:22--><g   id="j_24"  style="opacity: 1;"><path fill="none" cursor="pointer" stroke="transparent" stroke-linecap="round" joint-selector="wrapper" id="v-285" stroke-width="10" stroke-linejoin="round" d="M 1389 666.68 L 1550 738 C 1556 740.6666666666666 1562.3333333333333 742 1569 742 L 1729 742"></path><path fill="none" pointer-events="none" joint-selector="line" id="v-284" stroke="#444444" stroke-width="2" stroke-linejoin="round" stroke-dasharray="8 8" d="M 1389 666.68 L 1550 738 C 1556 740.6666666666666 1562.3333333333333 742 1569 742 L 1729 742" marker-end="url(#v-21252848929)"></path><g id="v-274" ><g id="v-275"  label-idx="0" cursor="move" transform="matrix(1,0,0,1,1559.212890625,727.5921630859375)" style="cursor: default;"><rect joint-selector="rect" id="v-279" fill="#ffffff" rx="3" ry="3" x="-91.26915740966797" y="-15.112499237060547" width="184.08250427246094" height="27.890623092651367" pointer-events="none"  style="display: block;"></rect><text joint-selector="text" id="v-278" font-size="24px" xml:space="preserve" fill="#444444" text-anchor="middle" pointer-events="none" font-family="Tahoma, Verdana, Helvetica, Arial" font-weight="normal"  style="display: block;"><tspan dy="0.3em" >Authenticates via</tspan></text></g><g id="v-276"  label-idx="1" cursor="move" transform="matrix(1,0,0,1,1559.212890625,757.9921875)" style="cursor: default;"><rect joint-selector="rect" id="v-281" fill="#ffffff" rx="3" ry="3" x="-25.624509811401367" y="-9.834999084472656" width="51.249019622802734" height="18.593748092651367"  pointer-events="none" style="display: block;"></rect><text joint-selector="text" id="v-280" font-size="16.799999999999997px" xml:space="preserve" fill="#444444" text-anchor="middle" pointer-events="none" font-family="Tahoma, Verdana, Helvetica, Arial" font-weight="normal"  style="display: block;"><tspan dy="0.3em" >[OIDC]</tspan></text></g><g id="v-277"  label-idx="2" cursor="move" transform="matrix(1,0,0,1,1541.5897216796875,764.0722045898438)" style="cursor: default;"><rect joint-selector="rect" id="v-283" fill="#ffffff" rx="3" ry="3" x="0" y="0" width="0" height="0"  display="none"></rect><text joint-selector="text" id="v-282" fill="#000000" font-size="14" text-anchor="middle" text-vertical-anchor="middle" pointer-events="none"></text></g></g></g><!--z-index:23--></g><g  style="user-select: none;"></g><g ></g><g  display="none"></g></g></svg>